<svg width="50" height="50" viewBox="0 0 50 50" fill="none" xmlns="http://www.w3.org/2000/svg">
<rect width="50" height="50" fill="#0085FF"/>
<path d="M16.6971 29.976V31H8.77713V19.8H16.4571V20.824H9.96113V24.808H15.7531V25.816H9.96113V29.976H16.6971ZM28.8403 19.8V31H27.8643L20.6643 21.912V31H19.4803V19.8H20.4563L27.6723 28.888V19.8H28.8403ZM40.3839 25.4H41.5199V29.672C40.9972 30.1307 40.3785 30.4827 39.6639 30.728C38.9492 30.9733 38.1972 31.096 37.4079 31.096C36.2879 31.096 35.2799 30.8507 34.3839 30.36C33.4879 29.8693 32.7839 29.192 32.2719 28.328C31.7599 27.4533 31.5039 26.4773 31.5039 25.4C31.5039 24.3227 31.7599 23.352 32.2719 22.488C32.7839 21.6133 33.4879 20.9307 34.3839 20.44C35.2799 19.9493 36.2932 19.704 37.4239 19.704C38.2772 19.704 39.0612 19.8427 39.7759 20.12C40.4905 20.3867 41.0932 20.7867 41.5839 21.32L40.8479 22.072C39.9625 21.1973 38.8372 20.76 37.4719 20.76C36.5652 20.76 35.7439 20.9627 35.0079 21.368C34.2825 21.7627 33.7119 22.3173 33.2959 23.032C32.8799 23.736 32.6719 24.5253 32.6719 25.4C32.6719 26.2747 32.8799 27.064 33.2959 27.768C33.7119 28.472 34.2825 29.0267 35.0079 29.432C35.7332 29.8373 36.5492 30.04 37.4559 30.04C38.6079 30.04 39.5839 29.752 40.3839 29.176V25.4Z" fill="white"/>
</svg>
