<svg width="253" height="84" viewBox="0 0 253 84" fill="none" xmlns="http://www.w3.org/2000/svg">
<g opacity="0.05">
<path d="M110.467 12.0469C105.864 12.0469 103.519 9.66035 101.45 7.55469C99.5817 5.65313 98.1059 4.15112 94.9525 4.15112C91.799 4.15112 90.3232 5.65313 88.4549 7.55469C86.3862 9.66035 84.0412 12.0469 79.4372 12.0469C74.8331 12.0469 72.4885 9.66035 70.4195 7.55469C68.5514 5.65313 67.0759 4.15112 63.9225 4.15112C60.7693 4.15112 59.2938 5.65313 57.4258 7.55469C55.3571 9.66035 53.0121 12.0469 48.4081 12.0469C43.8047 12.0469 41.4603 9.66035 39.3916 7.55469C37.5239 5.65313 36.0484 4.15112 32.8956 4.15112C29.7424 4.15112 28.267 5.65313 26.3989 7.55469C24.3302 9.66035 21.9852 12.0469 17.3815 12.0469C12.7775 12.0469 10.4325 9.66035 8.36349 7.55469C6.49543 5.65313 5.01996 4.15112 1.8665 4.15112C0.835883 4.15112 0 3.22196 0 2.07556C0 0.929505 0.835883 0 1.8665 0C6.47024 0 8.81519 2.38655 10.8842 4.4922C12.7523 6.39376 14.228 7.89578 17.3815 7.89578C20.5347 7.89578 22.0101 6.39376 23.8782 4.49255C25.9469 2.38655 28.2918 0 32.8956 0C37.499 0 39.8436 2.38689 41.9123 4.49255C43.7801 6.39411 45.2552 7.89578 48.4081 7.89578C51.5615 7.89578 53.037 6.39376 54.9051 4.49255C56.9738 2.38655 59.3187 0 63.9225 0C68.5265 0 70.8711 2.38655 72.9402 4.49255C74.8082 6.39376 76.284 7.89578 79.4372 7.89578C82.5909 7.89578 84.0664 6.39376 85.9345 4.49255C88.0035 2.38655 90.3484 0 94.9525 0C99.5565 0 101.901 2.38655 103.97 4.49255C105.839 6.39376 107.314 7.89578 110.467 7.89578C113.622 7.89578 115.097 6.39376 116.966 4.4922C119.035 2.38655 121.38 0 125.985 0C127.015 0 127.851 0.929505 127.851 2.07556C127.851 3.22196 127.015 4.15112 125.985 4.15112C122.831 4.15112 121.355 5.65313 119.486 7.55469C117.417 9.66035 115.072 12.0469 110.467 12.0469Z" fill="black"/>
<path d="M110.467 30.0351C105.864 30.0351 103.519 27.6485 101.45 25.5429C99.5817 23.6413 98.1059 22.1393 94.9525 22.1393C91.799 22.1393 90.3232 23.6413 88.4549 25.5429C86.3862 27.6485 84.0412 30.0351 79.4372 30.0351C74.8331 30.0351 72.4885 27.6485 70.4195 25.5429C68.5514 23.6413 67.0759 22.1393 63.9225 22.1393C60.7693 22.1393 59.2938 23.6413 57.4258 25.5429C55.3571 27.6485 53.0121 30.0351 48.4081 30.0351C43.8047 30.0351 41.4603 27.6485 39.3916 25.5429C37.5239 23.6413 36.0484 22.1393 32.8956 22.1393C29.7424 22.1393 28.267 23.6413 26.3989 25.5429C24.3302 27.6485 21.9852 30.0351 17.3815 30.0351C12.7775 30.0351 10.4325 27.6485 8.36349 25.5429C6.49543 23.6413 5.01996 22.1393 1.8665 22.1393C0.835883 22.1393 0 21.2101 0 20.0637C0 18.9177 0.835883 17.9882 1.8665 17.9882C6.47024 17.9882 8.81519 20.3747 10.8842 22.4804C12.7523 24.3819 14.228 25.8839 17.3815 25.8839C20.5347 25.8839 22.0101 24.3819 23.8782 22.4807C25.9469 20.3747 28.2918 17.9882 32.8956 17.9882C37.499 17.9882 39.8436 20.3751 41.9123 22.4807C43.7801 24.3823 45.2552 25.8839 48.4081 25.8839C51.5615 25.8839 53.037 24.3819 54.9051 22.4807C56.9738 20.3747 59.3187 17.9882 63.9225 17.9882C68.5265 17.9882 70.8711 20.3747 72.9402 22.4807C74.8082 24.3819 76.284 25.8839 79.4372 25.8839C82.5909 25.8839 84.0664 24.3819 85.9345 22.4807C88.0035 20.3747 90.3484 17.9882 94.9525 17.9882C99.5565 17.9882 101.901 20.3747 103.97 22.4807C105.839 24.3819 107.314 25.8839 110.467 25.8839C113.622 25.8839 115.097 24.3819 116.966 22.4804C119.035 20.3747 121.38 17.9882 125.985 17.9882C127.015 17.9882 127.851 18.9177 127.851 20.0637C127.851 21.2101 127.015 22.1393 125.985 22.1393C122.831 22.1393 121.355 23.6413 119.486 25.5429C117.417 27.6485 115.072 30.0351 110.467 30.0351Z" fill="black"/>
<path d="M110.467 48.0236C105.864 48.0236 103.519 45.637 101.45 43.5314C99.5817 41.6298 98.1059 40.1278 94.9525 40.1278C91.799 40.1278 90.3232 41.6298 88.4549 43.531C86.3862 45.637 84.0412 48.0236 79.4372 48.0236C74.8331 48.0236 72.4885 45.637 70.4195 43.531C68.5514 41.6298 67.0759 40.1278 63.9225 40.1278C60.7693 40.1278 59.2938 41.6298 57.4258 43.531C55.3571 45.637 53.0121 48.0236 48.4081 48.0236C43.8047 48.0236 41.4603 45.637 39.3916 43.531C37.5239 41.6298 36.0484 40.1278 32.8956 40.1278C29.7424 40.1278 28.267 41.6298 26.3989 43.531C24.3302 45.637 21.9852 48.0236 17.3815 48.0236C12.7775 48.0236 10.4325 45.637 8.36349 43.531C6.49543 41.6298 5.01965 40.1278 1.8665 40.1278C0.835883 40.1278 0 39.1983 0 38.0522C0 36.9058 0.835883 35.9767 1.8665 35.9767C6.47024 35.9767 8.81519 38.3632 10.8842 40.4689C12.7523 42.3705 14.228 43.8725 17.3815 43.8725C20.5347 43.8725 22.0101 42.3705 23.8782 40.4689C25.9469 38.3632 28.2918 35.9767 32.8956 35.9767C37.499 35.9767 39.8436 38.3632 41.9123 40.4692C43.7801 42.3704 45.2552 43.8725 48.4081 43.8725C51.5615 43.8725 53.037 42.3705 54.9051 40.4689C56.9738 38.3632 59.3187 35.9767 63.9225 35.9767C68.5265 35.9767 70.8711 38.3632 72.9402 40.4689C74.8082 42.3705 76.284 43.8725 79.4372 43.8725C82.5909 43.8725 84.0664 42.3705 85.9345 40.4689C88.0035 38.3632 90.3484 35.9767 94.9525 35.9767C99.5565 35.9767 101.901 38.3632 103.97 40.4689C105.839 42.3705 107.314 43.8725 110.467 43.8725C113.622 43.8725 115.097 42.3705 116.966 40.4689C119.035 38.3632 121.38 35.9767 125.985 35.9767C127.015 35.9767 127.851 36.9058 127.851 38.0522C127.851 39.1983 127.015 40.1278 125.985 40.1278C122.831 40.1278 121.355 41.6298 119.486 43.5314C117.417 45.637 115.072 48.0236 110.467 48.0236Z" fill="black"/>
<path d="M110.467 66.0117C105.864 66.0117 103.519 63.6252 101.45 61.5195C99.5817 59.618 98.1059 58.116 94.9525 58.116C91.799 58.116 90.3232 59.618 88.4549 61.5192C86.3862 63.6252 84.0412 66.0117 79.4372 66.0117C74.8331 66.0117 72.4885 63.6252 70.4195 61.5192C68.5514 59.618 67.0759 58.116 63.9225 58.116C60.7693 58.116 59.2938 59.618 57.4258 61.5192C55.3571 63.6252 53.0121 66.0117 48.4081 66.0117C43.8047 66.0117 41.4603 63.6252 39.3916 61.5192C37.5239 59.618 36.0484 58.116 32.8956 58.116C29.7424 58.116 28.267 59.618 26.3989 61.5192C24.3302 63.6252 21.9852 66.0117 17.3815 66.0117C12.7775 66.0117 10.4325 63.6252 8.36349 61.5192C6.49543 59.618 5.01965 58.116 1.8665 58.116C0.835883 58.116 0 57.1865 0 56.0404C0 54.894 0.835883 53.9648 1.8665 53.9648C6.47024 53.9648 8.81519 56.3514 10.8842 58.4571C12.7523 60.3586 14.228 61.8606 17.3815 61.8606C20.5347 61.8606 22.0101 60.3586 23.8782 58.4571C25.9469 56.3514 28.2918 53.9648 32.8956 53.9648C37.499 53.9648 39.8436 56.3514 41.9123 58.4574C43.7801 60.3586 45.2552 61.8606 48.4081 61.8606C51.5615 61.8606 53.037 60.3586 54.9051 58.4571C56.9738 56.3514 59.3187 53.9648 63.9225 53.9648C68.5265 53.9648 70.8711 56.3514 72.9402 58.4571C74.8082 60.3586 76.284 61.8606 79.4372 61.8606C82.5909 61.8606 84.0664 60.3586 85.9345 58.4571C88.0035 56.3514 90.3484 53.9648 94.9525 53.9648C99.5565 53.9648 101.901 56.3514 103.97 58.4571C105.839 60.3586 107.314 61.8606 110.467 61.8606C113.622 61.8606 115.097 60.3586 116.966 58.4571C119.035 56.3514 121.38 53.9648 125.985 53.9648C127.015 53.9648 127.851 54.894 127.851 56.0404C127.851 57.1865 127.015 58.116 125.985 58.116C122.831 58.116 121.355 59.618 119.486 61.5195C117.417 63.6252 115.072 66.0117 110.467 66.0117Z" fill="black"/>
<path d="M110.467 84C105.864 84 103.519 81.6135 101.45 79.5078C99.5817 77.6063 98.1059 76.1042 94.9525 76.1042C91.799 76.1042 90.3232 77.6063 88.4549 79.5075C86.3862 81.6135 84.0412 84 79.4372 84C74.8331 84 72.4885 81.6135 70.4195 79.5075C68.5514 77.6063 67.0759 76.1042 63.9225 76.1042C60.7693 76.1042 59.2938 77.6063 57.4258 79.5075C55.3571 81.6135 53.0121 84 48.4081 84C43.8047 84 41.4603 81.6135 39.3916 79.5075C37.5239 77.6063 36.0484 76.1042 32.8956 76.1042C29.7424 76.1042 28.267 77.6063 26.3989 79.5075C24.3302 81.6135 21.9852 84 17.3815 84C12.7775 84 10.4325 81.6135 8.36349 79.5075C6.49543 77.6063 5.01965 76.1042 1.8665 76.1042C0.835883 76.1042 0 75.1747 0 74.0287C0 72.8819 0.835883 71.9531 1.8665 71.9531C6.47024 71.9531 8.81519 74.3397 10.8842 76.4453C12.7523 78.3469 14.228 79.8489 17.3815 79.8489C20.5347 79.8489 22.0101 78.3469 23.8782 76.4453C25.9469 74.3397 28.2918 71.9531 32.8956 71.9531C37.499 71.9531 39.8436 74.3397 41.9123 76.4457C43.7801 78.3469 45.2552 79.8489 48.4081 79.8489C51.5615 79.8489 53.037 78.3469 54.9051 76.4453C56.9738 74.3397 59.3187 71.9531 63.9225 71.9531C68.5265 71.9531 70.8711 74.3397 72.9402 76.4453C74.8082 78.3469 76.284 79.8489 79.4372 79.8489C82.5909 79.8489 84.0664 78.3469 85.9345 76.4453C88.0035 74.3397 90.3484 71.9531 94.9525 71.9531C99.5565 71.9531 101.901 74.3397 103.97 76.4453C105.839 78.3469 107.314 79.8489 110.467 79.8489C113.622 79.8489 115.097 78.3469 116.966 76.4453C119.035 74.3397 121.38 71.9531 125.985 71.9531C127.015 71.9531 127.851 72.8819 127.851 74.0287C127.851 75.1747 127.015 76.1042 125.985 76.1042C122.831 76.1042 121.355 77.6063 119.486 79.5078C117.417 81.6135 115.072 84 110.467 84Z" fill="black"/>
<path d="M235.467 12.0469C230.864 12.0469 228.519 9.66035 226.45 7.55469C224.582 5.65313 223.106 4.15112 219.952 4.15112C216.799 4.15112 215.323 5.65313 213.455 7.55469C211.386 9.66035 209.041 12.0469 204.437 12.0469C199.833 12.0469 197.488 9.66035 195.419 7.55469C193.551 5.65313 192.076 4.15112 188.922 4.15112C185.769 4.15112 184.294 5.65313 182.426 7.55469C180.357 9.66035 178.012 12.0469 173.408 12.0469C168.805 12.0469 166.46 9.66035 164.392 7.55469C162.524 5.65313 161.048 4.15112 157.896 4.15112C154.742 4.15112 153.267 5.65313 151.399 7.55469C149.33 9.66035 146.985 12.0469 142.382 12.0469C137.777 12.0469 135.433 9.66035 133.363 7.55469C131.495 5.65313 130.02 4.15112 126.867 4.15112C125.836 4.15112 125 3.22196 125 2.07556C125 0.929505 125.836 0 126.867 0C131.47 0 133.815 2.38655 135.884 4.4922C137.752 6.39376 139.228 7.89578 142.382 7.89578C145.535 7.89578 147.01 6.39376 148.878 4.49255C150.947 2.38655 153.292 0 157.896 0C162.499 0 164.844 2.38689 166.912 4.49255C168.78 6.39411 170.255 7.89578 173.408 7.89578C176.562 7.89578 178.037 6.39376 179.905 4.49255C181.974 2.38655 184.319 0 188.922 0C193.527 0 195.871 2.38655 197.94 4.49255C199.808 6.39376 201.284 7.89578 204.437 7.89578C207.591 7.89578 209.066 6.39376 210.934 4.49255C213.003 2.38655 215.348 0 219.952 0C224.557 0 226.901 2.38655 228.97 4.49255C230.839 6.39376 232.314 7.89578 235.467 7.89578C238.622 7.89578 240.097 6.39376 241.966 4.4922C244.035 2.38655 246.38 0 250.985 0C252.015 0 252.851 0.929505 252.851 2.07556C252.851 3.22196 252.015 4.15112 250.985 4.15112C247.831 4.15112 246.355 5.65313 244.486 7.55469C242.417 9.66035 240.072 12.0469 235.467 12.0469Z" fill="black"/>
<path d="M235.467 30.0351C230.864 30.0351 228.519 27.6485 226.45 25.5429C224.582 23.6413 223.106 22.1393 219.952 22.1393C216.799 22.1393 215.323 23.6413 213.455 25.5429C211.386 27.6485 209.041 30.0351 204.437 30.0351C199.833 30.0351 197.488 27.6485 195.419 25.5429C193.551 23.6413 192.076 22.1393 188.922 22.1393C185.769 22.1393 184.294 23.6413 182.426 25.5429C180.357 27.6485 178.012 30.0351 173.408 30.0351C168.805 30.0351 166.46 27.6485 164.392 25.5429C162.524 23.6413 161.048 22.1393 157.896 22.1393C154.742 22.1393 153.267 23.6413 151.399 25.5429C149.33 27.6485 146.985 30.0351 142.382 30.0351C137.777 30.0351 135.433 27.6485 133.363 25.5429C131.495 23.6413 130.02 22.1393 126.867 22.1393C125.836 22.1393 125 21.2101 125 20.0637C125 18.9177 125.836 17.9882 126.867 17.9882C131.47 17.9882 133.815 20.3747 135.884 22.4804C137.752 24.3819 139.228 25.8839 142.382 25.8839C145.535 25.8839 147.01 24.3819 148.878 22.4807C150.947 20.3747 153.292 17.9882 157.896 17.9882C162.499 17.9882 164.844 20.3751 166.912 22.4807C168.78 24.3823 170.255 25.8839 173.408 25.8839C176.562 25.8839 178.037 24.3819 179.905 22.4807C181.974 20.3747 184.319 17.9882 188.922 17.9882C193.527 17.9882 195.871 20.3747 197.94 22.4807C199.808 24.3819 201.284 25.8839 204.437 25.8839C207.591 25.8839 209.066 24.3819 210.934 22.4807C213.003 20.3747 215.348 17.9882 219.952 17.9882C224.557 17.9882 226.901 20.3747 228.97 22.4807C230.839 24.3819 232.314 25.8839 235.467 25.8839C238.622 25.8839 240.097 24.3819 241.966 22.4804C244.035 20.3747 246.38 17.9882 250.985 17.9882C252.015 17.9882 252.851 18.9177 252.851 20.0637C252.851 21.2101 252.015 22.1393 250.985 22.1393C247.831 22.1393 246.355 23.6413 244.486 25.5429C242.417 27.6485 240.072 30.0351 235.467 30.0351Z" fill="black"/>
<path d="M235.467 48.0236C230.864 48.0236 228.519 45.637 226.45 43.5314C224.582 41.6298 223.106 40.1278 219.952 40.1278C216.799 40.1278 215.323 41.6298 213.455 43.531C211.386 45.637 209.041 48.0236 204.437 48.0236C199.833 48.0236 197.488 45.637 195.419 43.531C193.551 41.6298 192.076 40.1278 188.922 40.1278C185.769 40.1278 184.294 41.6298 182.426 43.531C180.357 45.637 178.012 48.0236 173.408 48.0236C168.805 48.0236 166.46 45.637 164.392 43.531C162.524 41.6298 161.048 40.1278 157.896 40.1278C154.742 40.1278 153.267 41.6298 151.399 43.531C149.33 45.637 146.985 48.0236 142.382 48.0236C137.777 48.0236 135.433 45.637 133.363 43.531C131.495 41.6298 130.02 40.1278 126.867 40.1278C125.836 40.1278 125 39.1983 125 38.0522C125 36.9058 125.836 35.9767 126.867 35.9767C131.47 35.9767 133.815 38.3632 135.884 40.4689C137.752 42.3705 139.228 43.8725 142.382 43.8725C145.535 43.8725 147.01 42.3705 148.878 40.4689C150.947 38.3632 153.292 35.9767 157.896 35.9767C162.499 35.9767 164.844 38.3632 166.912 40.4692C168.78 42.3704 170.255 43.8725 173.408 43.8725C176.562 43.8725 178.037 42.3705 179.905 40.4689C181.974 38.3632 184.319 35.9767 188.922 35.9767C193.527 35.9767 195.871 38.3632 197.94 40.4689C199.808 42.3705 201.284 43.8725 204.437 43.8725C207.591 43.8725 209.066 42.3705 210.934 40.4689C213.003 38.3632 215.348 35.9767 219.952 35.9767C224.557 35.9767 226.901 38.3632 228.97 40.4689C230.839 42.3705 232.314 43.8725 235.467 43.8725C238.622 43.8725 240.097 42.3705 241.966 40.4689C244.035 38.3632 246.38 35.9767 250.985 35.9767C252.015 35.9767 252.851 36.9058 252.851 38.0522C252.851 39.1983 252.015 40.1278 250.985 40.1278C247.831 40.1278 246.355 41.6298 244.486 43.5314C242.417 45.637 240.072 48.0236 235.467 48.0236Z" fill="black"/>
<path d="M235.467 66.0117C230.864 66.0117 228.519 63.6252 226.45 61.5195C224.582 59.618 223.106 58.116 219.952 58.116C216.799 58.116 215.323 59.618 213.455 61.5192C211.386 63.6252 209.041 66.0117 204.437 66.0117C199.833 66.0117 197.488 63.6252 195.419 61.5192C193.551 59.618 192.076 58.116 188.922 58.116C185.769 58.116 184.294 59.618 182.426 61.5192C180.357 63.6252 178.012 66.0117 173.408 66.0117C168.805 66.0117 166.46 63.6252 164.392 61.5192C162.524 59.618 161.048 58.116 157.896 58.116C154.742 58.116 153.267 59.618 151.399 61.5192C149.33 63.6252 146.985 66.0117 142.382 66.0117C137.777 66.0117 135.433 63.6252 133.363 61.5192C131.495 59.618 130.02 58.116 126.867 58.116C125.836 58.116 125 57.1865 125 56.0404C125 54.894 125.836 53.9648 126.867 53.9648C131.47 53.9648 133.815 56.3514 135.884 58.4571C137.752 60.3586 139.228 61.8606 142.382 61.8606C145.535 61.8606 147.01 60.3586 148.878 58.4571C150.947 56.3514 153.292 53.9648 157.896 53.9648C162.499 53.9648 164.844 56.3514 166.912 58.4574C168.78 60.3586 170.255 61.8606 173.408 61.8606C176.562 61.8606 178.037 60.3586 179.905 58.4571C181.974 56.3514 184.319 53.9648 188.922 53.9648C193.527 53.9648 195.871 56.3514 197.94 58.4571C199.808 60.3586 201.284 61.8606 204.437 61.8606C207.591 61.8606 209.066 60.3586 210.934 58.4571C213.003 56.3514 215.348 53.9648 219.952 53.9648C224.557 53.9648 226.901 56.3514 228.97 58.4571C230.839 60.3586 232.314 61.8606 235.467 61.8606C238.622 61.8606 240.097 60.3586 241.966 58.4571C244.035 56.3514 246.38 53.9648 250.985 53.9648C252.015 53.9648 252.851 54.894 252.851 56.0404C252.851 57.1865 252.015 58.116 250.985 58.116C247.831 58.116 246.355 59.618 244.486 61.5195C242.417 63.6252 240.072 66.0117 235.467 66.0117Z" fill="black"/>
<path d="M235.467 84C230.864 84 228.519 81.6135 226.45 79.5078C224.582 77.6063 223.106 76.1042 219.952 76.1042C216.799 76.1042 215.323 77.6063 213.455 79.5075C211.386 81.6135 209.041 84 204.437 84C199.833 84 197.488 81.6135 195.419 79.5075C193.551 77.6063 192.076 76.1042 188.922 76.1042C185.769 76.1042 184.294 77.6063 182.426 79.5075C180.357 81.6135 178.012 84 173.408 84C168.805 84 166.46 81.6135 164.392 79.5075C162.524 77.6063 161.048 76.1042 157.896 76.1042C154.742 76.1042 153.267 77.6063 151.399 79.5075C149.33 81.6135 146.985 84 142.382 84C137.777 84 135.433 81.6135 133.363 79.5075C131.495 77.6063 130.02 76.1042 126.867 76.1042C125.836 76.1042 125 75.1747 125 74.0287C125 72.8819 125.836 71.9531 126.867 71.9531C131.47 71.9531 133.815 74.3397 135.884 76.4453C137.752 78.3469 139.228 79.8489 142.382 79.8489C145.535 79.8489 147.01 78.3469 148.878 76.4453C150.947 74.3397 153.292 71.9531 157.896 71.9531C162.499 71.9531 164.844 74.3397 166.912 76.4457C168.78 78.3469 170.255 79.8489 173.408 79.8489C176.562 79.8489 178.037 78.3469 179.905 76.4453C181.974 74.3397 184.319 71.9531 188.922 71.9531C193.527 71.9531 195.871 74.3397 197.94 76.4453C199.808 78.3469 201.284 79.8489 204.437 79.8489C207.591 79.8489 209.066 78.3469 210.934 76.4453C213.003 74.3397 215.348 71.9531 219.952 71.9531C224.557 71.9531 226.901 74.3397 228.97 76.4453C230.839 78.3469 232.314 79.8489 235.467 79.8489C238.622 79.8489 240.097 78.3469 241.966 76.4453C244.035 74.3397 246.38 71.9531 250.985 71.9531C252.015 71.9531 252.851 72.8819 252.851 74.0287C252.851 75.1747 252.015 76.1042 250.985 76.1042C247.831 76.1042 246.355 77.6063 244.486 79.5078C242.417 81.6135 240.072 84 235.467 84Z" fill="black"/>
</g>
</svg>
