<svg width="130" height="50" viewBox="0 0 130 50" fill="none" xmlns="http://www.w3.org/2000/svg">
<rect width="130" height="50" rx="25" fill="#0057FF"/>
<path d="M19.5 32.12C18.1133 32.12 16.8533 31.8133 15.72 31.2C14.6 30.5733 13.72 29.72 13.08 28.64C12.4533 27.56 12.14 26.3467 12.14 25C12.14 23.6533 12.4533 22.44 13.08 21.36C13.72 20.28 14.6 19.4333 15.72 18.82C16.8533 18.1933 18.1133 17.88 19.5 17.88C20.8867 17.88 22.1333 18.1867 23.24 18.8C24.36 19.4133 25.24 20.2667 25.88 21.36C26.52 22.44 26.84 23.6533 26.84 25C26.84 26.3467 26.52 27.5667 25.88 28.66C25.24 29.74 24.36 30.5867 23.24 31.2C22.1333 31.8133 20.8867 32.12 19.5 32.12ZM19.5 30.8C20.6067 30.8 21.6067 30.5533 22.5 30.06C23.3933 29.5533 24.0933 28.86 24.6 27.98C25.1067 27.0867 25.36 26.0933 25.36 25C25.36 23.9067 25.1067 22.92 24.6 22.04C24.0933 21.1467 23.3933 20.4533 22.5 19.96C21.6067 19.4533 20.6067 19.2 19.5 19.2C18.3933 19.2 17.3867 19.4533 16.48 19.96C15.5867 20.4533 14.88 21.1467 14.36 22.04C13.8533 22.92 13.6 23.9067 13.6 25C13.6 26.0933 13.8533 27.0867 14.36 27.98C14.88 28.86 15.5867 29.5533 16.48 30.06C17.3867 30.5533 18.3933 30.8 19.5 30.8ZM37.1388 22.74H33.1588V32H31.7388V22.74H27.7588V21.48H37.1388V22.74ZM48.6319 21.48V32H47.2119V22.74H40.6119V32H39.1919V21.48H48.6319ZM58.0884 21.4C59.0751 21.4 59.9684 21.6267 60.7684 22.08C61.5684 22.52 62.1951 23.1467 62.6484 23.96C63.1018 24.7733 63.3284 25.7 63.3284 26.74C63.3284 27.7933 63.1018 28.7267 62.6484 29.54C62.1951 30.3533 61.5684 30.9867 60.7684 31.44C59.9818 31.88 59.0884 32.1 58.0884 32.1C57.2351 32.1 56.4618 31.9267 55.7684 31.58C55.0884 31.22 54.5284 30.7 54.0884 30.02V35.88H52.6684V21.48H54.0284V23.56C54.4551 22.8667 55.0151 22.3333 55.7084 21.96C56.4151 21.5867 57.2084 21.4 58.0884 21.4ZM57.9884 30.84C58.7218 30.84 59.3884 30.6733 59.9884 30.34C60.5884 29.9933 61.0551 29.5067 61.3884 28.88C61.7351 28.2533 61.9084 27.54 61.9084 26.74C61.9084 25.94 61.7351 25.2333 61.3884 24.62C61.0551 23.9933 60.5884 23.5067 59.9884 23.16C59.3884 22.8133 58.7218 22.64 57.9884 22.64C57.2418 22.64 56.5684 22.8133 55.9684 23.16C55.3818 23.5067 54.9151 23.9933 54.5684 24.62C54.2351 25.2333 54.0684 25.94 54.0684 26.74C54.0684 27.54 54.2351 28.2533 54.5684 28.88C54.9151 29.5067 55.3818 29.9933 55.9684 30.34C56.5684 30.6733 57.2418 30.84 57.9884 30.84ZM69.9408 21.4C71.3141 21.4 72.3674 21.7467 73.1008 22.44C73.8341 23.12 74.2008 24.1333 74.2008 25.48V32H72.8408V30.36C72.5208 30.9067 72.0474 31.3333 71.4208 31.64C70.8074 31.9467 70.0741 32.1 69.2208 32.1C68.0474 32.1 67.1141 31.82 66.4208 31.26C65.7274 30.7 65.3808 29.96 65.3808 29.04C65.3808 28.1467 65.7008 27.4267 66.3408 26.88C66.9941 26.3333 68.0274 26.06 69.4408 26.06H72.7808V25.42C72.7808 24.5133 72.5274 23.8267 72.0208 23.36C71.5141 22.88 70.7741 22.64 69.8008 22.64C69.1341 22.64 68.4941 22.7533 67.8808 22.98C67.2674 23.1933 66.7408 23.4933 66.3008 23.88L65.6608 22.82C66.1941 22.3667 66.8341 22.02 67.5808 21.78C68.3274 21.5267 69.1141 21.4 69.9408 21.4ZM69.4408 30.98C70.2408 30.98 70.9274 30.8 71.5008 30.44C72.0741 30.0667 72.5008 29.5333 72.7808 28.84V27.12H69.4808C67.6808 27.12 66.7808 27.7467 66.7808 29C66.7808 29.6133 67.0141 30.1 67.4808 30.46C67.9474 30.8067 68.6008 30.98 69.4408 30.98ZM84.6809 26.56C86.1076 26.8933 86.8209 27.7533 86.8209 29.14C86.8209 30.06 86.4809 30.7667 85.8009 31.26C85.1209 31.7533 84.1076 32 82.7609 32H77.9809V21.48H82.6209C83.8209 21.48 84.7609 21.7133 85.4409 22.18C86.1209 22.6467 86.4609 23.3133 86.4609 24.18C86.4609 24.7533 86.3009 25.2467 85.9809 25.66C85.6743 26.06 85.2409 26.36 84.6809 26.56ZM79.3609 26.16H82.5209C83.3343 26.16 83.9543 26.0067 84.3809 25.7C84.8209 25.3933 85.0409 24.9467 85.0409 24.36C85.0409 23.7733 84.8209 23.3333 84.3809 23.04C83.9543 22.7467 83.3343 22.6 82.5209 22.6H79.3609V26.16ZM82.7009 30.88C83.6076 30.88 84.2876 30.7333 84.7409 30.44C85.1943 30.1467 85.4209 29.6867 85.4209 29.06C85.4209 28.4333 85.2143 27.9733 84.8009 27.68C84.3876 27.3733 83.7343 27.22 82.8409 27.22H79.3609V30.88H82.7009ZM90.1489 21.48H91.5689V29.84L98.5889 21.48H99.8489V32H98.4289V23.64L91.4289 32H90.1489V21.48ZM111.318 22.74H107.338V32H105.918V22.74H101.938V21.48H111.318V22.74ZM117.892 25.2C119.212 25.2133 120.212 25.5067 120.892 26.08C121.585 26.6533 121.932 27.48 121.932 28.56C121.932 29.68 121.558 30.54 120.812 31.14C120.078 31.74 119.012 32.0333 117.612 32.02L113.372 32V21.48H114.792V25.16L117.892 25.2ZM117.532 30.94C118.505 30.9533 119.238 30.76 119.732 30.36C120.238 29.9467 120.492 29.3467 120.492 28.56C120.492 27.7867 120.245 27.2133 119.752 26.84C119.258 26.4667 118.518 26.2733 117.532 26.26L114.792 26.22V30.9L117.532 30.94Z" fill="white"/>
</svg>
