<svg width="50" height="50" viewBox="0 0 50 50" fill="none" xmlns="http://www.w3.org/2000/svg">
<rect width="50" height="50" fill="#0085FF"/>
<path d="M34.8751 32.4525L29.8696 27.4486C30.684 26.1876 31.1655 24.6917 31.1655 23.0809C31.1655 18.6255 27.5372 15 23.0827 15C18.6245 15 15 18.6255 15 23.0822C15 27.5389 18.6245 31.1644 23.0827 31.1644C24.6923 31.1644 26.1883 30.6856 27.4507 29.8699L32.4537 34.8751C32.6202 35.0416 32.8951 35.0416 33.0603 34.8751L34.8751 33.0591C35.0416 32.8926 35.0416 32.6216 34.8751 32.4525ZM17.566 23.0822C17.566 20.0427 20.0391 17.5672 23.0814 17.5672C26.1225 17.5672 28.5956 20.0414 28.5956 23.0822C28.5956 26.1218 26.1225 28.596 23.0814 28.596C20.0391 28.5973 17.566 26.1218 17.566 23.0822Z" fill="white"/>
</svg>
